<?xml version="1.0" encoding="UTF-8"?>
<svg version="1.1" xmlns="http://www.w3.org/2000/svg" width="256" height="256">
    <path
        d="M0 0 C1.31476318 -0.00953201 2.62952637 -0.01906403 3.98413086 -0.02888489 C5.42561876 -0.02862349 6.86710667 -0.02768662 8.30859375 -0.02612305 C9.78068158 -0.03000819 11.25276828 -0.03434248 12.72485352 -0.03910828 C15.81172315 -0.04657593 18.89847843 -0.04627506 21.98535156 -0.04101562 C25.94690275 -0.03521645 29.9079871 -0.05215968 33.86946106 -0.0753603 C36.90973664 -0.09006975 39.94989901 -0.09097325 42.99020386 -0.08785057 C44.45108974 -0.08836507 45.91198175 -0.09362686 47.37283325 -0.10366249 C49.41258194 -0.11595595 51.45242466 -0.10731978 53.4921875 -0.09765625 C54.65419678 -0.09828568 55.81620605 -0.0989151 57.01342773 -0.0995636 C58.36609741 0.08567619 58.36609741 0.08567619 59.74609375 0.2746582 C61.81295733 3.37495358 61.98337456 3.82853519 61.8269043 7.28588867 C61.78507523 8.49812355 61.78507523 8.49812355 61.74240112 9.73484802 C61.70623688 10.61165726 61.67007263 11.48846649 61.6328125 12.3918457 C61.0496496 36.52150337 62.37049465 53.72128731 75.73046875 74.13793945 C78.96473134 79.17110391 81.73439945 84.44206103 84.55859375 89.7121582 C85.05528564 90.60088623 85.55197754 91.48961426 86.0637207 92.40527344 C88.41470174 96.61935841 90.43053694 100.5979678 91.74609375 105.2746582 C92.50535156 105.23985352 93.26460937 105.20504883 94.046875 105.16918945 C95.53767578 105.12858398 95.53767578 105.12858398 97.05859375 105.0871582 C98.04472656 105.05235352 99.03085938 105.01754883 100.046875 104.98168945 C102.74609375 105.2746582 102.74609375 105.2746582 104.39208984 106.46679688 C106.21477779 108.90044351 106.11907257 110.47196069 106.109375 113.4934082 C106.1084082 115.01514648 106.1084082 115.01514648 106.10742188 116.56762695 C106.09130859 117.62594727 106.07519531 118.68426758 106.05859375 119.7746582 C106.06181641 120.83297852 106.06503906 121.89129883 106.06835938 122.98168945 C106.0132035 130.87399358 106.0132035 130.87399358 103.74609375 134.2746582 C101.10050964 134.65218163 101.10050964 134.65218163 97.67260742 134.65560913 C95.72914932 134.66829834 95.72914932 134.66829834 93.74642944 134.6812439 C92.30230588 134.67541043 90.85818355 134.66926589 89.4140625 134.6628418 C87.89978659 134.66690493 86.38551364 134.67224536 84.87124634 134.67877197 C80.75145363 134.6924822 76.63188556 134.68713176 72.51208878 134.67763472 C68.20751576 134.67005723 63.90296241 134.67707839 59.59838867 134.68179321 C52.36861709 134.68725636 45.13893734 134.68004453 37.90917969 134.66577148 C29.54191446 134.64944387 21.17486851 134.65473199 12.8076086 134.6712507 C5.63305498 134.68484969 -1.5414325 134.68679303 -8.71599483 134.67893469 C-13.00516798 134.67424941 -17.29423796 134.67365668 -21.58340454 134.68354416 C-25.61519294 134.69218854 -29.64669771 134.68623859 -33.67845535 134.66886139 C-35.16116489 134.66488295 -36.64389816 134.66605368 -38.12659836 134.67264938 C-40.14453041 134.68080072 -42.16251442 134.66878442 -44.18041992 134.65560913 C-45.31162766 134.65447805 -46.44283539 134.65334698 -47.60832214 134.65218163 C-48.4813649 134.5275989 -49.35440765 134.40301617 -50.25390625 134.2746582 C-53.30234246 129.7020039 -52.58278218 125.15251216 -52.56640625 119.7746582 C-52.58251953 118.71633789 -52.59863281 117.65801758 -52.61523438 116.56762695 C-52.61587891 115.55313477 -52.61652344 114.53864258 -52.6171875 113.4934082 C-52.62016846 112.56463867 -52.62314941 111.63586914 -52.6262207 110.67895508 C-52.25390625 108.2746582 -52.25390625 108.2746582 -50.89990234 106.46679688 C-48.46711242 104.70481034 -46.52299623 104.98280797 -43.56640625 105.0871582 C-42.57253906 105.11422852 -41.57867187 105.14129883 -40.5546875 105.16918945 C-39.41580078 105.22139648 -39.41580078 105.22139648 -38.25390625 105.2746582 C-38.03476562 104.5012207 -37.815625 103.7277832 -37.58984375 102.9309082 C-35.77849954 97.97354509 -33.34586055 93.43376585 -30.87890625 88.7746582 C-30.35304932 87.77378174 -29.82719238 86.77290527 -29.28540039 85.74169922 C-24.99471249 77.60423161 -20.61067504 69.51820912 -16.17626953 61.45825195 C-15.70560059 60.60231445 -15.23493164 59.74637695 -14.75 58.86450195 C-14.33935303 58.12063232 -13.92870605 57.3767627 -13.50561523 56.61035156 C-13.09255127 55.83957275 -12.6794873 55.06879395 -12.25390625 54.2746582 C-11.44783936 52.97492065 -11.44783936 52.97492065 -10.62548828 51.64892578 C-8.71902529 46.95878249 -8.81309963 42.71332673 -8.8125 37.6965332 C-8.79929214 36.68874817 -8.78608429 35.68096313 -8.7724762 34.64263916 C-8.73169956 31.43661673 -8.7099296 28.23088084 -8.69140625 25.0246582 C-8.66764198 21.80423917 -8.6396037 18.58409079 -8.59962463 15.36383057 C-8.57520774 13.36290949 -8.56039798 11.36184406 -8.55601501 9.36077881 C-8.5458284 8.45934143 -8.53564178 7.55790405 -8.52514648 6.62915039 C-8.52087143 5.83450378 -8.51659637 5.03985718 -8.51219177 4.22113037 C-7.86001839 -0.6937302 -4.01874818 0.01593442 0 0 Z "
        fill="#040102" transform="translate(101.25390625,60.725341796875)" />
    <path
        d="M0 0 C18.48 0 36.96 0 56 0 C69.96446815 25.60152494 69.96446815 25.60152494 75.31396484 35.99487305 C76.29042496 37.89099866 77.27201012 39.78441884 78.25390625 41.67773438 C78.88310223 42.8956837 79.51202122 44.11377617 80.140625 45.33203125 C80.69266602 46.40171143 81.24470703 47.4713916 81.81347656 48.57348633 C83 51 83 51 83 52 C46.7 52 10.4 52 -27 52 C-16.65957447 30.17021277 -16.65957447 30.17021277 -11.8125 21.5 C-11.09030273 20.19289062 -11.09030273 20.19289062 -10.35351562 18.859375 C-8.9051762 16.23801636 -7.45260313 13.61899835 -6 11 C-4.02 7.37 -2.04 3.74 0 0 Z "
        fill="#E2324E" transform="translate(100,114)" />
    <path
        d="M0 0 C17.16 0 34.32 0 52 0 C52 11.55 52 23.1 52 35 C34.84 35 17.68 35 0 35 C0 23.45 0 11.9 0 0 Z "
        fill="#E3EAF5" transform="translate(102,70)" />
    <path
        d="M0 0 C46.2 0 92.4 0 140 0 C140 3.63 140 7.26 140 11 C93.8 11 47.6 11 0 11 C0 7.37 0 3.74 0 0 Z "
        fill="#E5ECF7" transform="translate(58,175)" />
    <path
        d="M0 0 C4.52001749 0.75333625 5.90966294 2.6504297 8.703125 6.1484375 C16.41255252 17.28027444 18.45316647 28.16628161 17.375 41.5625 C15.43979401 51.43644876 11.29585625 61.95674775 3.375 68.5625 C-0.375 68.3125 -0.375 68.3125 -3.625 67.5625 C-4.32421875 65.35546875 -4.32421875 65.35546875 -4.625 62.5625 C-3.33203125 60.23828125 -3.33203125 60.23828125 -1.4375 57.875 C4.81968446 49.44466166 8.08248449 40.64803707 7.15625 30.0625 C5.89799214 22.31937474 2.83440464 15.05989475 -2.5 9.25 C-4.625 6.5625 -4.625 6.5625 -4.5 3.75 C-3.29492997 0.73732493 -3.24723833 0.69583678 0 0 Z "
        fill="#000000" transform="translate(217.625,87.4375)" />
    <path
        d="M0 0 C1 1 1 1 1.4375 4.125 C0.98501904 8.13268848 0.81249129 8.5950974 -1.75 11.3125 C-8.44375993 18.4335212 -10.11628867 27.45140772 -10 37 C-9.22517545 44.56943981 -6.4046996 51.50301885 -1.25 57.125 C1 60 1 60 1.4375 63.25 C1 66 1 66 -1 68 C-3.40625 68.3359375 -3.40625 68.3359375 -6 68 C-12.92683005 62.74617551 -17.96759299 52.83838808 -19.71484375 44.44140625 C-21.42007389 29.8418331 -19.68018199 17.0856783 -10.68359375 5.0234375 C-7.11740501 0.73739164 -5.83675683 -0.50754407 0 0 Z "
        fill="#000000" transform="translate(41,88)" />
    <path
        d="M0 0 C3.19496923 1.14106044 4.00601379 2.411754 5.765625 5.2734375 C6.26578125 6.06492187 6.7659375 6.85640625 7.28125 7.671875 C10.68616311 13.81364864 10.38446858 21.59526732 9.01953125 28.35546875 C7.49128512 32.87113386 5.29312818 36.02033984 1.515625 38.8984375 C-1.171875 39.3359375 -1.171875 39.3359375 -3.484375 38.8984375 C-4.144375 38.2384375 -4.804375 37.5784375 -5.484375 36.8984375 C-5.14109142 30.71933302 -5.14109142 30.71933302 -2.984375 28.0234375 C-0.5672341 24.59915456 -0.23425398 21.03557444 -0.484375 16.8984375 C-1.60097503 13.65212716 -3.0250052 10.3578073 -5.484375 7.8984375 C-5.734375 4.9609375 -5.734375 4.9609375 -5.484375 1.8984375 C-2.484375 -0.1015625 -2.484375 -0.1015625 0 0 Z "
        fill="#000000" transform="translate(204.484375,102.1015625)" />
    <path
        d="M0 0 C2.3125 0.75 2.3125 0.75 3.3125 1.75 C3.76313661 5.62547487 3.62043205 7.30300187 1.375 10.5625 C-1.25102159 14.620897 -2.0607451 17.93026975 -1.6875 22.75 C-0.56200884 25.99534829 0.85146318 29.28896318 3.3125 31.75 C3.5 34.1875 3.5 34.1875 3.3125 36.75 C1.3125 38.75 1.3125 38.75 -0.9375 39.3125 C-4.69143223 38.54465023 -5.97538581 36.65200637 -8.35546875 33.76953125 C-12.65376754 27.25275567 -12.50194804 20.31860802 -11.6875 12.75 C-9.89071403 7.19499637 -6.89638532 -0.64152422 0 0 Z "
        fill="#000000" transform="translate(53.6875,102.25)" />
</svg>